<svg width="110px" height="110px" viewBox="0 0 110 110" version="1.1" xmlns="http://www.w3.org/2000/svg" xmlns:xlink="http://www.w3.org/1999/xlink">
    <g id="Site" stroke="none" stroke-width="1" fill="none" fill-rule="evenodd">
        <g id="Desktop-Copy-7" fill="#484848">
            <g id="cmd">
                <path d="M55,110 C24.6243388,110 0,85.3756612 0,55 C0,24.6243388 24.6243388,0 55,0 C85.3756612,0 110,24.6243388 110,55 C110,85.3756612 85.3756612,110 55,110 Z M48.6140625,61.25625 L48.6140625,48.884375 L60.9859375,48.884375 L60.9859375,61.25625 L48.6140625,61.25625 Z M48.6140625,67.4421875 L60.9859375,67.4421875 L60.9859375,74.5476563 C60.9859375,78.1143407 62.2746616,81.1724482 64.8521484,83.7220703 C67.4296353,86.2716924 70.5295392,87.5464844 74.1519531,87.5464844 C77.8022318,87.5464844 80.9021357,86.2647264 83.4517578,83.7011719 C86.0013799,81.1376174 87.2761719,78.0307474 87.2761719,74.3804688 C87.2761719,70.8137842 86.0013799,67.7347786 83.4517578,65.1433594 C80.9021357,62.5519402 77.8440282,61.25625 74.2773437,61.25625 L67.171875,61.25625 L67.171875,48.884375 L74.2773437,48.884375 C77.8440282,48.884375 80.9021357,47.5886848 83.4517578,44.9972656 C86.0013799,42.4058464 87.2761719,39.3129086 87.2761719,35.7183594 C87.2761719,32.0959454 86.0013799,29.0030076 83.4517578,26.4394531 C80.9021357,23.8758986 77.8022318,22.5941406 74.1519531,22.5941406 C70.5295392,22.5941406 67.4296353,23.8689326 64.8521484,26.4185547 C62.2746616,28.9681768 60.9859375,32.0262843 60.9859375,35.5929688 L60.9859375,42.6984375 L48.6140625,42.6984375 L48.6140625,35.5929688 C48.6140625,32.0262843 47.3253384,28.9681768 44.7478516,26.4185547 C42.1703647,23.8689326 39.0704608,22.5941406 35.4480469,22.5941406 C31.8256329,22.5941406 28.7326951,23.8758986 26.1691406,26.4394531 C23.6055861,29.0030076 22.3238281,32.0959454 22.3238281,35.7183594 C22.3238281,39.3129086 23.6055861,42.4058464 26.1691406,44.9972656 C28.7326951,47.5886848 31.7838365,48.884375 35.3226562,48.884375 L42.428125,48.884375 L42.428125,61.25625 L35.3226562,61.25625 C31.7838365,61.25625 28.7326951,62.5519402 26.1691406,65.1433594 C23.6055861,67.7347786 22.3238281,70.8137842 22.3238281,74.3804688 C22.3238281,78.0307474 23.6055861,81.1376174 26.1691406,83.7011719 C28.7326951,86.2647264 31.8256329,87.5464844 35.4480469,87.5464844 C39.0704608,87.5464844 42.1703647,86.2716924 44.7478516,83.7220703 C47.3253384,81.1724482 48.6140625,78.1143407 48.6140625,74.5476563 L48.6140625,67.4421875 Z M42.428125,42.6984375 L35.4898437,42.6984375 C33.5671779,42.6984375 31.9231839,42.015762 30.5578125,40.6503906 C29.1924411,39.2850192 28.5097656,37.6410252 28.5097656,35.7183594 C28.5097656,33.7956935 29.1924411,32.1586656 30.5578125,30.8072266 C31.9231839,29.4557875 33.5532457,28.7800781 35.4480469,28.7800781 C37.3707127,28.7800781 39.0147067,29.4557875 40.3800781,30.8072266 C41.7454495,32.1586656 42.428125,33.7956935 42.428125,35.7183594 L42.428125,42.6984375 Z M42.428125,67.4421875 L42.428125,74.4222656 C42.428125,76.3170668 41.7454495,77.9471286 40.3800781,79.3125 C39.0147067,80.6778714 37.3846449,81.3605469 35.4898437,81.3605469 C33.5671779,81.3605469 31.9231839,80.6778714 30.5578125,79.3125 C29.1924411,77.9471286 28.5097656,76.3031346 28.5097656,74.3804688 C28.5097656,72.4856676 29.1924411,70.8556058 30.5578125,69.4902344 C31.9231839,68.124863 33.5671779,67.4421875 35.4898437,67.4421875 L42.428125,67.4421875 Z M67.171875,42.6984375 L67.171875,35.7183594 C67.171875,33.7956935 67.8545505,32.1586656 69.2199219,30.8072266 C70.5852933,29.4557875 72.2292873,28.7800781 74.1519531,28.7800781 C76.074619,28.7800781 77.7116469,29.4557875 79.0630859,30.8072266 C80.414525,32.1586656 81.0902344,33.7956935 81.0902344,35.7183594 C81.0902344,37.6410252 80.4075589,39.2850192 79.0421875,40.6503906 C77.6768161,42.015762 76.0467543,42.6984375 74.1519531,42.6984375 L67.171875,42.6984375 Z M67.171875,67.4421875 L74.1519531,67.4421875 C76.0467543,67.4421875 77.6768161,68.124863 79.0421875,69.4902344 C80.4075589,70.8556058 81.0902344,72.4856676 81.0902344,74.3804688 C81.0902344,76.3031346 80.414525,77.9471286 79.0630859,79.3125 C77.7116469,80.6778714 76.074619,81.3605469 74.1519531,81.3605469 C72.2292873,81.3605469 70.5852933,80.6778714 69.2199219,79.3125 C67.8545505,77.9471286 67.171875,76.3170668 67.171875,74.4222656 L67.171875,67.4421875 Z" id="Combined-Shape"></path>
            </g>
        </g>
    </g>
</svg>