<svg width="110px" height="110px" viewBox="0 0 110 110" version="1.1" xmlns="http://www.w3.org/2000/svg" xmlns:xlink="http://www.w3.org/1999/xlink">
    <style>
      #cmd path {
        stroke: #484848;
      }
      #cmd circle {
        fill: #E2E2E2;
      }
      @media (prefers-color-scheme: dark) {
        #cmd circle {
          fill: #484848;
        }
        #cmd path {
          stroke: white;
        }
      }
    </style>
    <g id="Site" stroke="none" stroke-width="1" fill="none" fill-rule="evenodd">
        <g id="Desktop-Copy-5">
            <g id="cmd">
                <circle id="Oval" fill="#000000" cx="55" cy="55" r="55"></circle>
                <path d="M73.8333333,28 C68.7707231,28 64.6666667,32.1040565 64.6666667,37.1666667 L64.6666667,73.8333333 C64.6666667,78.8959435 68.7707231,83 73.8333333,83 C78.8959435,83 83,78.8959435 83,73.8333333 C83,68.7707231 78.8959435,64.6666667 73.8333333,64.6666667 L37.1666667,64.6666667 C32.1040565,64.6666667 28,68.7707231 28,73.8333333 C28,78.8959435 32.1040565,83 37.1666667,83 C42.2292769,83 46.3333333,78.8959435 46.3333333,73.8333333 L46.3333333,37.1666667 C46.3333333,32.1040565 42.2292769,28 37.1666667,28 C32.1040565,28 28,32.1040565 28,37.1666667 C28,42.2292769 32.1040565,46.3333333 37.1666667,46.3333333 L73.8333333,46.3333333 C78.8959435,46.3333333 83,42.2292769 83,37.1666667 C83,32.1040565 78.8959435,28 73.8333333,28 Z" id="Path" stroke="#FFFFFF" stroke-width="7.603943" stroke-linecap="round" stroke-linejoin="round"></path>
            </g>
        </g>
    </g>
</svg>